<svg xmlns="http://www.w3.org/2000/svg" viewBox="0 0 300 50" width="300" height="50">
  <!-- Fire/forge icon -->
  <g transform="translate(8, 5)">
    <path d="M15 38c-8-4-13-12-13-20 0 0 5 6 8 4 2-1 0-6 3-10 2-3 5-5 7-6 -1 5 1 8 4 10 3 2 6 1 7-1 0 8-4 14-8 18-2 2-5 4-8 5z" fill="#e8590c"/>
    <path d="M15 38c-5-3-8-8-8-14 0 0 3 4 5 3 1-1 0-4 2-7 1-2 3-3 4-4 0 3 1 5 3 7 2 1 4 1 5-1 0 6-3 10-6 13-1 1-3 2-5 3z" fill="#f59f00"/>
  </g>
  <!-- "Alert" in gray -->
  <text x="48" y="36" font-family="'Helvetica Neue', Arial, sans-serif" font-size="28" font-weight="600" fill="#6f6f6f" letter-spacing="0.5">alert</text>
  <!-- "Forge" in orange -->
  <text x="132" y="36" font-family="'Helvetica Neue', Arial, sans-serif" font-size="28" font-weight="700" fill="#e8590c" letter-spacing="0.5">forge</text>
</svg>
